Coordinates
version=1
nRows=15
nColumns=34
inDegrees=no

Units are S.I. units (second, meters, Newtons, ...)
If the header above contains a line with 'inDegrees', this indicates whether rotational values are in degrees (yes) or radians (no).

endheader
time	pelvis_tilt	pelvis_list	pelvis_rotation	pelvis_tx	pelvis_ty	pelvis_tz	hip_flexion_r	hip_adduction_r	hip_rotation_r	knee_angle_r	ankle_angle_r	subtalar_angle_r	mtp_angle_r	hip_flexion_l	hip_adduction_l	hip_rotation_l	knee_angle_l	ankle_angle_l	subtalar_angle_l	mtp_angle_l	lumbar_extension	lumbar_bending	lumbar_rotation	arm_flex_r	arm_add_r	arm_rot_r	elbow_flex_r	pro_sup_r	arm_flex_l	arm_add_l	arm_rot_l	elbow_flex_l	pro_sup_l
0.49	0.188539	-0.0471214	0.04884	0.372074	0.908917	-0.207446	-0.340857	0.0690075	-0.312143	0.263432	0.406497	0.323133	-0.0978792	0.346533	-0.0561322	-0.118405	0.396966	0.194965	0.0235783	-0.0979091	-0.466952	0.0339396	0.154758	0.437551	-0.103557	0.274128	0.607187	1.19685	0.191797	-0.164333	0.226503	0.430848	1.05084
0.5	0.190587	-0.0370439	0.0434731	0.383469	0.907903	-0.207206	-0.355168	0.0537439	-0.323182	0.268701	0.410046	0.340285	-0.0978763	0.326446	-0.0407664	-0.109724	0.328806	0.19727	0.0337552	-0.0979059	-0.468989	0.0153874	0.151609	0.43609	-0.100586	0.283854	0.605593	1.19414	0.194858	-0.166749	0.219856	0.426972	1.04203
0.51	0.193155	-0.0268147	0.0368726	0.395119	0.906926	-0.206936	-0.370247	0.0376902	-0.333544	0.273824	0.412383	0.357497	-0.0978733	0.303517	-0.0254314	-0.0938466	0.259738	0.197645	0.0358847	-0.0979027	-0.471292	-0.00403847	0.149125	0.433888	-0.0981556	0.29421	0.603844	1.19115	0.197225	-0.169336	0.212275	0.42421	1.03412
0.52	0.196138	-0.0168093	0.0291826	0.407025	0.905962	-0.206638	-0.385969	0.0214006	-0.342655	0.278699	0.413395	0.374099	-0.0978704	0.278876	-0.0108836	-0.0714139	0.192166	0.196249	0.02959	-0.0978995	-0.473685	-0.0239365	0.147323	0.430938	-0.0962281	0.305178	0.601933	1.18809	0.198875	-0.172141	0.203931	0.422525	1.02729
0.53	0.199341	-0.00741035	0.020614	0.419175	0.904977	-0.206318	-0.402066	0.00546092	-0.349928	0.283291	0.412989	0.389285	-0.0978674	0.254023	0.00210709	-0.0443008	0.128989	0.193655	0.0159271	-0.0978963	-0.475921	-0.0438815	0.146176	0.427238	-0.0947725	0.316725	0.599861	1.18527	0.199826	-0.17521	0.195062	0.421822	1.02165
0.54	0.202506	0.00108732	0.0114136	0.431547	0.903938	-0.205982	-0.418132	-0.0096505	-0.354913	0.28768	0.411129	0.402279	-0.0978645	0.230625	0.0129387	-0.0154471	0.073183	0.190687	-0.0027599	-0.0978932	-0.477718	-0.0635156	0.1456	0.422794	-0.0937685	0.328817	0.597649	1.18302	0.200146	-0.178593	0.18593	0.421966	1.01724
0.55	0.205339	0.00856921	0.00182367	0.444117	0.902818	-0.205629	-0.433659	-0.0237088	-0.357442	0.292101	0.407849	0.412519	-0.0978616	0.2102	0.0213579	0.0116755	0.0272396	0.188069	-0.0234215	-0.09789	-0.478798	-0.0826447	0.145448	0.417626	-0.0932078	0.341431	0.595341	1.18162	0.199941	-0.182329	0.176796	0.422799	1.014
0.56	0.207561	0.0151539	-0.00795816	0.456859	0.901594	-0.20526	-0.44809	-0.0368377	-0.357731	0.296963	0.403254	0.419784	-0.0978586	0.193773	0.0275609	0.033841	-0.00742866	0.186002	-0.0431777	-0.0978868	-0.478926	-0.101301	0.145526	0.411763	-0.0930919	0.354558	0.593005	1.1813	0.199349	-0.186449	0.16789	0.424152	1.0118
0.57	0.208943	0.0211513	-0.0178018	0.469758	0.900246	-0.204881	-0.460881	-0.0495179	-0.356374	0.302822	0.397485	0.42422	-0.0978557	0.181631	0.0321736	0.0488068	-0.0308477	0.183844	-0.0601277	-0.0978836	-0.477938	-0.119754	0.145611	0.40524	-0.0934284	0.368192	0.59072	1.18213	0.198521	-0.190971	0.159402	0.425856	1.01047
0.58	0.209363	0.0270636	-0.0276343	0.482796	0.898795	-0.204517	-0.47155	-0.062476	-0.354245	0.310334	0.390661	0.42623	-0.0978527	0.173358	0.0360928	0.0556166	-0.0443109	0.180183	-0.0735976	-0.0978805	-0.475742	-0.138418	0.145486	0.398089	-0.0942215	0.382307	0.588567	1.18408	0.197619	-0.195894	0.1515	0.427731	1.00979
0.59	0.20883	0.0334637	-0.0374132	0.495968	0.897251	-0.204199	-0.479785	-0.0765575	-0.352345	0.320173	0.382807	0.426319	-0.0978498	0.168042	0.0403381	0.0545756	-0.049915	0.173183	-0.0840275	-0.0978773	-0.472386	-0.157779	0.144952	0.390328	-0.0954639	0.396837	0.586603	1.18699	0.196806	-0.2012	0.144352	0.429582	1.00953
0.6	0.207538	0.0409273	-0.0471024	0.509273	0.895648	-0.203961	-0.485535	-0.0925921	-0.351634	0.33294	0.373776	0.424928	-0.0978469	0.164501	0.0459125	0.0470086	-0.05005	0.161044	-0.0926432	-0.0978741	-0.468085	-0.178319	0.143824	0.381963	-0.0971244	0.411671	0.584832	1.19062	0.196244	-0.206861	0.138124	0.431196	1.00947
0.61	0.205894	0.0499716	-0.056658	0.522715	0.894044	-0.203838	-0.489067	-0.111291	-0.352872	0.349083	0.363206	0.422294	-0.0978439	0.161447	0.0537015	0.0349015	-0.046976	0.142466	-0.101038	-0.097871	-0.463231	-0.200457	0.14193	0.372983	-0.0991371	0.426667	0.583178	1.19466	0.196076	-0.212835	0.13297	0.432344	1.00943
0.62	0.204468	0.0610169	-0.0660237	0.536297	0.892521	-0.203856	-0.4909	-0.133171	-0.356478	0.368868	0.350487	0.418356	-0.097841	0.157659	0.0644093	0.0204929	-0.0425468	0.117014	-0.11076	-0.0978678	-0.458366	-0.224523	0.139105	0.363378	-0.101401	0.441664	0.581477	1.19878	0.196428	-0.219075	0.129021	0.432801	1.00925
0.63	0.203909	0.0743601	-0.0751365	0.550018	0.891173	-0.204031	-0.4917	-0.158506	-0.362439	0.392372	0.334801	0.412714	-0.0978381	0.152086	0.0785212	0.00590024	-0.0380852	0.0852999	-0.122959	-0.0978646	-0.454107	-0.250723	0.135192	0.353158	-0.103783	0.456503	0.579477	1.20264	0.197404	-0.225522	0.126359	0.432358	1.0088
